<?xml version="1.0" encoding="UTF-8"?>
<svg id="Layer_1" data-name="Layer 1" xmlns="http://www.w3.org/2000/svg" xmlns:xlink="http://www.w3.org/1999/xlink" viewBox="0 0 13.78 13.78">
  <defs>
    <style>
      .cls-1 {
        stroke-width: .5px;
      }

      .cls-1, .cls-2, .cls-3, .cls-4 {
        fill: none;
      }

      .cls-1, .cls-2, .cls-4 {
        stroke: #231f20;
        stroke-linecap: round;
        stroke-linejoin: round;
      }

      .cls-2 {
        stroke-width: .6px;
      }

      .cls-3, .cls-5, .cls-6 {
        stroke-width: 0px;
      }

      .cls-5 {
        fill: #fff200;
      }

      .cls-4 {
        stroke-width: .75px;
      }

      .cls-6 {
        fill: #231f20;
      }

      .cls-7 {
        clip-path: url(#clippath);
      }
    </style>
    <clipPath id="clippath">
      <rect class="cls-3" width="13.78" height="13.78"/>
    </clipPath>
  </defs>
  <g class="cls-7">
    <path class="cls-6" d="m11.83,10.85c0,.93-.75,1.68-1.68,1.68H2.93c-.93,0-1.68-.75-1.68-1.68V3.62c0-.93.75-1.68,1.68-1.68h7.22c.93,0,1.68.75,1.68,1.68v7.22Z"/>
    <path class="cls-1" d="m11.83,10.85c0,.93-.75,1.68-1.68,1.68H2.93c-.93,0-1.68-.75-1.68-1.68V3.62c0-.93.75-1.68,1.68-1.68h7.22c.93,0,1.68.75,1.68,1.68v7.22Z"/>
    <path class="cls-5" d="m3.58,1.3h7.22c.93,0,1.68.75,1.68,1.68v7.23c0,.93-.75,1.68-1.68,1.68H3.58c-.93,0-1.68-.75-1.68-1.68V2.98c0-.93.75-1.68,1.68-1.68Z"/>
    <path class="cls-2" d="m3.58,1.3h7.22c.93,0,1.68.75,1.68,1.68v7.23c0,.93-.75,1.68-1.68,1.68H3.58c-.93,0-1.68-.75-1.68-1.68V2.98c0-.93.75-1.68,1.68-1.68Z"/>
    <path class="cls-4" d="m9.08,3.89c0-.45-.85-.81-1.89-.81s-1.89.36-1.89.81.85.81,1.89.81,1.89-.36,1.89-.81Z"/>
    <path class="cls-1" d="m5.3,6.59c0,.45.85.81,1.89.81s1.89-.36,1.89-.81"/>
    <path class="cls-4" d="m9.08,9.29c0,.45-.85.81-1.89.81s-1.89-.36-1.89-.81V3.89c0,.45.85.81,1.89.81s1.89-.36,1.89-.81v5.4Z"/>
    <line class="cls-1" x1="7.19" y1="4.7" x2="7.19" y2="10.1"/>
    <polygon class="cls-6" points="7.29 9.95 7.29 7.47 8.86 7.1 8.86 9.66 7.29 9.95"/>
  </g>
</svg>