<?xml version="1.0" encoding="UTF-8"?>
<svg id="Layer_1" data-name="Layer 1" xmlns="http://www.w3.org/2000/svg" xmlns:xlink="http://www.w3.org/1999/xlink" viewBox="0 0 13.78 13.78">
  <defs>
    <style>
      .cls-1 {
        stroke-width: .5px;
      }

      .cls-1, .cls-2, .cls-3, .cls-4 {
        fill: none;
      }

      .cls-1, .cls-2, .cls-4 {
        stroke: #231f20;
        stroke-linecap: round;
        stroke-linejoin: round;
      }

      .cls-2 {
        stroke-width: .6px;
      }

      .cls-3, .cls-5, .cls-6 {
        stroke-width: 0px;
      }

      .cls-4 {
        stroke-width: .81px;
      }

      .cls-5 {
        fill: #fff;
      }

      .cls-6 {
        fill: #231f20;
      }

      .cls-7 {
        clip-path: url(#clippath);
      }
    </style>
    <clipPath id="clippath">
      <rect class="cls-3" width="13.78" height="13.78"/>
    </clipPath>
  </defs>
  <g class="cls-7">
    <path class="cls-6" d="m2.93,1.94h7.22c.93,0,1.68.75,1.68,1.68v7.22c0,.93-.75,1.68-1.68,1.68H2.93c-.93,0-1.68-.75-1.68-1.68V3.63c0-.93.75-1.68,1.68-1.68Z"/>
    <path class="cls-1" d="m2.93,1.94h7.22c.93,0,1.68.75,1.68,1.68v7.22c0,.93-.75,1.68-1.68,1.68H2.93c-.93,0-1.68-.75-1.68-1.68V3.63c0-.93.75-1.68,1.68-1.68Z"/>
    <path class="cls-5" d="m3.58,1.3h7.22c.93,0,1.68.75,1.68,1.68v7.22c0,.93-.75,1.68-1.68,1.68H3.57c-.93,0-1.68-.75-1.68-1.68V2.98c0-.93.75-1.68,1.68-1.68Z"/>
    <path class="cls-2" d="m3.58,1.3h7.22c.93,0,1.68.75,1.68,1.68v7.23c0,.93-.75,1.68-1.68,1.68H3.57c-.93,0-1.68-.75-1.68-1.68V2.98c0-.93.75-1.68,1.68-1.68Z"/>
    <polygon class="cls-4" points="10.2 6.61 7.19 10.15 4.17 6.61 7.19 3.03 10.2 6.61"/>
  </g>
</svg>